<svg xmlns="http://www.w3.org/2000/svg" viewBox="0 0 200 250" fill="none">
  <defs>
    <linearGradient id="g" x1="30%" y1="0%" x2="70%" y2="100%">
      <stop offset="0%" stop-color="#E8C48A"/>
      <stop offset="50%" stop-color="#D4A574"/>
      <stop offset="100%" stop-color="#B8884E"/>
    </linearGradient>
  </defs>

  <!-- Outer shield — clean smooth shape -->
  <path d="M100 10 C140 10 170 30 180 70 C190 110 180 150 150 180 C130 200 110 218 100 228 C90 218 70 200 50 180 C20 150 10 110 20 70 C30 30 60 10 100 10Z" stroke="url(#g)" stroke-width="3.5" fill="none"/>

  <!-- Inner shield -->
  <path d="M100 32 C130 32 154 48 162 78 C170 108 162 138 140 162 C124 178 110 194 100 204 C90 194 76 178 60 162 C38 138 30 108 38 78 C46 48 70 32 100 32Z" stroke="url(#g)" stroke-width="1.5" fill="none" opacity="0.35"/>

  <!-- Central stem -->
  <line x1="100" y1="48" x2="100" y2="192" stroke="url(#g)" stroke-width="2.5" stroke-linecap="round"/>

  <!-- Top crown -->
  <path d="M100 48 L90 36 L84 26" stroke="url(#g)" stroke-width="1.8" fill="none" stroke-linecap="round" stroke-linejoin="round"/>
  <path d="M100 48 L110 36 L116 26" stroke="url(#g)" stroke-width="1.8" fill="none" stroke-linecap="round" stroke-linejoin="round"/>
  <circle cx="84" cy="26" r="3" fill="#E2B67F"/>
  <circle cx="116" cy="26" r="3" fill="#E2B67F"/>

  <!-- L1 -->
  <path d="M100 64 L78 52 L60 44" stroke="url(#g)" stroke-width="2" fill="none" stroke-linecap="round" stroke-linejoin="round"/>
  <path d="M78 52 L72 40" stroke="url(#g)" stroke-width="1.3" fill="none" stroke-linecap="round"/>
  <circle cx="60" cy="44" r="3" fill="#E2B67F"/>
  <circle cx="72" cy="40" r="2.5" fill="#D4A574"/>

  <!-- L2 -->
  <path d="M100 86 L72 72 L48 64" stroke="url(#g)" stroke-width="2" fill="none" stroke-linecap="round" stroke-linejoin="round"/>
  <path d="M72 72 L62 82 L46 88" stroke="url(#g)" stroke-width="1.3" fill="none" stroke-linecap="round" stroke-linejoin="round"/>
  <circle cx="48" cy="64" r="3" fill="#E2B67F"/>
  <circle cx="46" cy="88" r="2.5" fill="#D4A574"/>

  <!-- L3 -->
  <path d="M100 108 L74 98 L46 92" stroke="url(#g)" stroke-width="2" fill="none" stroke-linecap="round" stroke-linejoin="round"/>
  <path d="M74 98 L64 110 L44 118" stroke="url(#g)" stroke-width="1.3" fill="none" stroke-linecap="round" stroke-linejoin="round"/>
  <circle cx="46" cy="92" r="2.5" fill="#D4A574"/>
  <circle cx="44" cy="118" r="3" fill="#E2B67F"/>

  <!-- L4 -->
  <path d="M100 130 L76 122 L54 120" stroke="url(#g)" stroke-width="1.8" fill="none" stroke-linecap="round" stroke-linejoin="round"/>
  <path d="M76 122 L66 134 L52 142" stroke="url(#g)" stroke-width="1.2" fill="none" stroke-linecap="round" stroke-linejoin="round"/>
  <circle cx="54" cy="120" r="2.5" fill="#D4A574"/>
  <circle cx="52" cy="142" r="2.5" fill="#C49560"/>

  <!-- L5 -->
  <path d="M100 150 L80 144 L66 146" stroke="url(#g)" stroke-width="1.5" fill="none" stroke-linecap="round" stroke-linejoin="round"/>
  <circle cx="66" cy="146" r="2" fill="#C49560"/>

  <!-- L6 -->
  <path d="M100 168 L86 164 L76 166" stroke="url(#g)" stroke-width="1.2" fill="none" stroke-linecap="round" stroke-linejoin="round"/>
  <circle cx="76" cy="166" r="2" fill="#C49560"/>

  <!-- R1 -->
  <path d="M100 64 L122 52 L140 44" stroke="url(#g)" stroke-width="2" fill="none" stroke-linecap="round" stroke-linejoin="round"/>
  <path d="M122 52 L128 40" stroke="url(#g)" stroke-width="1.3" fill="none" stroke-linecap="round"/>
  <circle cx="140" cy="44" r="3" fill="#E2B67F"/>
  <circle cx="128" cy="40" r="2.5" fill="#D4A574"/>

  <!-- R2 -->
  <path d="M100 86 L128 72 L152 64" stroke="url(#g)" stroke-width="2" fill="none" stroke-linecap="round" stroke-linejoin="round"/>
  <path d="M128 72 L138 82 L154 88" stroke="url(#g)" stroke-width="1.3" fill="none" stroke-linecap="round" stroke-linejoin="round"/>
  <circle cx="152" cy="64" r="3" fill="#E2B67F"/>
  <circle cx="154" cy="88" r="2.5" fill="#D4A574"/>

  <!-- R3 -->
  <path d="M100 108 L126 98 L154 92" stroke="url(#g)" stroke-width="2" fill="none" stroke-linecap="round" stroke-linejoin="round"/>
  <path d="M126 98 L136 110 L156 118" stroke="url(#g)" stroke-width="1.3" fill="none" stroke-linecap="round" stroke-linejoin="round"/>
  <circle cx="154" cy="92" r="2.5" fill="#D4A574"/>
  <circle cx="156" cy="118" r="3" fill="#E2B67F"/>

  <!-- R4 -->
  <path d="M100 130 L124 122 L146 120" stroke="url(#g)" stroke-width="1.8" fill="none" stroke-linecap="round" stroke-linejoin="round"/>
  <path d="M124 122 L134 134 L148 142" stroke="url(#g)" stroke-width="1.2" fill="none" stroke-linecap="round" stroke-linejoin="round"/>
  <circle cx="146" cy="120" r="2.5" fill="#D4A574"/>
  <circle cx="148" cy="142" r="2.5" fill="#C49560"/>

  <!-- R5 -->
  <path d="M100 150 L120 144 L134 146" stroke="url(#g)" stroke-width="1.5" fill="none" stroke-linecap="round" stroke-linejoin="round"/>
  <circle cx="134" cy="146" r="2" fill="#C49560"/>

  <!-- R6 -->
  <path d="M100 168 L114 164 L124 166" stroke="url(#g)" stroke-width="1.2" fill="none" stroke-linecap="round" stroke-linejoin="round"/>
  <circle cx="124" cy="166" r="2" fill="#C49560"/>

  <!-- Stem nodes -->
  <circle cx="100" cy="64" r="2" fill="#D4A574"/>
  <circle cx="100" cy="86" r="2" fill="#D4A574"/>
  <circle cx="100" cy="108" r="2" fill="#D4A574"/>
  <circle cx="100" cy="130" r="2" fill="#D4A574"/>
  <circle cx="100" cy="150" r="2" fill="#D4A574"/>
  <circle cx="100" cy="168" r="2" fill="#D4A574"/>
</svg>